<?xml version="1.0" encoding="UTF-8"?>
<svg id="paper_airplane" data-name="paper airplane" xmlns="http://www.w3.org/2000/svg" version="1.1" viewBox="0 0 26 26">
  <defs>
    <style>
      .cls-1 {
        fill: #dbdbdb;
        fill-rule: evenodd;
        stroke-width: 0px;
      }
    </style>
  </defs>
  <path id="Path_10" data-name="Path 10" class="cls-1" d="M5.7,6c.3-.3.7-.3,1-.1l13.5,6.4c.4.2.6.7.4,1.1,0,.2-.2.3-.4.4l-13.5,6.4c-.5.2-1,0-1.3-.5,0-.2-.1-.4,0-.6l1-6.1-1-6.1c0-.3,0-.7.3-.9ZM7.3,13.5l-.9,5.6,12.9-6.1L6.4,6.9l.9,5.6h5.1c.3,0,.5.3.5.5,0,.3-.2.5-.5.5h-5.1Z"/>
</svg>