<?xml version="1.0" encoding="utf-8"?>
<!-- Generator: $$$/GeneralStr/196=Adobe Illustrator 27.6.0, SVG Export Plug-In . SVG Version: 6.00 Build 0)  -->
<svg version="1.1" id="exePoQvUpbG1" text-rendering="geometricPrecision" shape-rendering="geometricPrecision"
	 xmlns="http://www.w3.org/2000/svg" xmlns:xlink="http://www.w3.org/1999/xlink" x="0px" y="0px" viewBox="0 0 231.7 33.9"
	 style="enable-background:new 0 0 231.7 33.9;" xml:space="preserve">
<style type="text/css">
.logo_castaar_part{fill:#C1A360;}
.logo_point {
	/*
    animation: bounce 3s infinite normal forwards;
    animation-timing-function: linear(0, 0.003, 0.013, 0.03, 0.05, 0.08, 0.11, 0.15, 0.2, 0.26, 0.31, 0.38, 0.45, 0.53, 0.62, 0.71, 0.81, 0.9, 0.99, 0.94, 0.89, 0.85, 0.82, 0.79, 0.77, 0.76, 0.752, 0.75, 0.755, 0.77, 0.78, 0.81, 0.84, 0.87, 0.92, 0.97, 0.99, 0.97, 0.95, 0.94, 0.938, 0.94, 0.949, 0.96, 0.99, 0.994, 0.986, 0.985, 0.989, 1 100% 100%);
	*/
    animation: bounce_safari 3s linear infinite normal forwards;
}
@keyframes bounce {
    0% {transform: translateY(-100%)}
    50% {transform: translateY(0%)}
    90% {transform: translateY(0%); animation-timing-function: ease;}
    100% {transform: translateY(-100%); animation-timing-function: ease;}
}
@keyframes bounce_safari {
	0% { transform: translateY(-100%); }
	2% { transform: translateY(-89.11%); }
	4% { transform: translateY(-56.44%); }
	9% { transform: translateY(-1.99%); }
	13% { transform: translateY(-24.98%); }
	23% { transform: translateY(-1.63%); }
	32% { transform: translateY(-6.25%); }
	38% { transform: translateY(-0.66%); }
	44% { transform: translateY(-1.54%); }
	50% { transform: translateY(0%); }
	90% { transform: translateY(0%); animation-timing-function: ease; }
	100% { transform: translateY(-100%); animation-timing-function: ease; }
}
</style>
<path class="logo_castaar_part" d="M0,17C-0.1,12.4,1.6,8,4.8,4.8S12.4-0.1,17,0C22.7-0.1,28,2.9,31.1,7.7l-7.2,4.1C22.4,9.4,19.8,8,17,8.1
	c-5.3,0-8.7,3.6-8.7,8.8s3.4,8.8,8.7,8.8c2.8,0.1,5.5-1.3,6.9-3.8l7.2,4.2c-3,4.9-8.4,7.8-14.1,7.7c-4.5,0.1-8.9-1.6-12.1-4.8
	S-0.1,21.5,0,17"/>
<path class="logo_castaar_part" d="M54.8,28.5H44l-1.4,4.7h-9L44.3,0.7h10.1l10.7,32.5h-9L54.8,28.5L54.8,28.5z M52.7,21.4l-3.3-11.1l-3.3,11.1
	H52.7L52.7,21.4z"/>
<path class="logo_castaar_part" d="M67.5,25.9l7.1-4.1c0.9,2.7,3.5,4.5,6.4,4.3c2.9,0,3.8-1.1,3.8-2.2c0-1.9-2.1-2.4-6.3-3.6
	c-5.1-1.5-9.7-4.1-9.7-10.2S73.8,0,80.2,0c5.4,0,9.8,2.6,12.1,7.4l-7,4.1c-1-2.4-2.7-3.6-5.1-3.6c-2,0-3,1-3,2.1
	c0,1.4,1.2,2.2,5.6,3.5c5,1.5,10.4,3.3,10.4,10.2c0,6.5-5,10.2-12.4,10.2C73.7,33.9,69.2,30.6,67.5,25.9"/>
<path class="logo_castaar_part" d="M120.1,8.7h-8v24.5h-8.3V8.7h-8v-8h24.4C120.1,0.7,120.1,8.7,120.1,8.7z"/>
<path class="logo_castaar_part" d="M141.6,28.5h-10.8l-1.4,4.7h-9l10.7-32.5h10.1l10.7,32.5h-9C143,33.2,141.6,28.5,141.6,28.5z M139.4,21.4
	l-3.3-11.1l-3.3,11.1H139.4z"/>
<path class="logo_castaar_part" d="M176,28.5h-10.8l-1.4,4.7h-9l10.7-32.5h10.1l10.7,32.5h-9L176,28.5L176,28.5z M173.8,21.4l-3.3-11.1l-3.3,11.1
	H173.8z"/>
<path class="logo_castaar_part" d="M202.3,22.7h-3v10.5H191V0.7h13c6.6,0,11.7,4.7,11.7,11.3c0,3.9-2.1,7.4-5.5,9.3l6.7,12H208L202.3,22.7
	L202.3,22.7z M199.4,15.7h4.6c1,0,1.9-0.3,2.6-1s1-1.6,0.9-2.6c0.1-1-0.3-1.9-0.9-2.6s-1.6-1.1-2.5-1.1h-4.6V15.7z"/>
<path class="logo_castaar_part logo_point" d="M222,29.1c0-2,1.2-3.7,3-4.5s3.9-0.4,5.3,1s1.8,3.5,1.1,5.3s-2.5,3-4.5,3C224.2,33.9,222,31.7,222,29.1"/>
</svg>
